<?xml version="1.0" standalone="no"?>
<!DOCTYPE svg PUBLIC "-//W3C//DTD SVG 20010904//EN"
 "http://www.w3.org/TR/2001/REC-SVG-20010904/DTD/svg10.dtd">
<svg version="1.0" xmlns="http://www.w3.org/2000/svg"
 width="902.000000pt" height="902.000000pt" viewBox="0 0 902.000000 902.000000"
 preserveAspectRatio="xMidYMid meet">
<metadata>
Created by potrace 1.14, written by Peter Selinger 2001-2017
</metadata>
<g transform="translate(0.000000,902.000000) scale(0.100000,-0.100000)"
fill="#000000" stroke="none">
<path d="M0 4510 l0 -4510 3635 0 3635 0 0 745 0 745 -425 0 -425 0 -2 2156
-3 2157 -176 -264 c-1311 -1960 -1721 -2564 -1741 -2564 -18 0 -202 270 -962
1409 l-941 1409 -3 -2152 -2 -2151 -525 0 -525 0 0 3020 0 3020 568 0 567 -1
433 -672 c629 -974 1401 -2169 1405 -2173 2 -2 417 637 923 1421 l919 1425
457 0 458 0 0 745 0 745 -3635 0 -3635 0 0 -4510z"/>
</g>
</svg>
