<svg width="599" height="121" viewBox="0 0 599 121" fill="none" xmlns="http://www.w3.org/2000/svg">
<path fill-rule="evenodd" clip-rule="evenodd" d="M530.547 14.2011H546.6V0H530.547V14.2011ZM531.164 89.4053H546.106V24.2036H531.164V89.4053ZM4.09863 89.4053H19.0407V27.6613L46.0845 68.1653H46.5785L73.8693 27.4143V89.4053H89.0583V2.96371H72.8814L46.5785 43.8382L20.2756 2.96371H4.09863V89.4053ZM157.491 89.4053V50.7535C157.491 33.3417 148.106 23.2157 128.842 23.2157C118.222 23.2157 111.183 25.4385 104.021 28.6492L108.096 40.6275C114.023 38.1578 119.457 36.5524 126.742 36.5524C137.115 36.5524 142.796 41.4919 142.796 50.5065V51.7414C137.733 50.1361 132.67 49.0247 124.767 49.0247C109.578 49.0247 98.3402 55.94 98.3402 70.3881V70.6351C98.3402 83.7248 109.207 90.7636 121.556 90.7636C131.435 90.7636 138.227 86.6885 142.672 81.3785V89.4053H157.491ZM143.043 65.8191C143.043 73.9693 135.634 79.5262 125.754 79.5262C118.716 79.5262 113.159 76.0686 113.159 69.8942V69.6472C113.159 63.3493 118.716 59.5212 128.101 59.5212C133.905 59.5212 139.215 60.6326 143.043 62.1144V65.8191ZM183.413 89.4053H168.471V24.2036H183.413V34.3296C187.611 28.1552 193.662 22.8453 203.788 22.8453C218.483 22.8453 227.004 32.7243 227.004 47.9133V89.4053H212.062V52.3589C212.062 42.2329 206.999 36.4289 198.108 36.4289C189.464 36.4289 183.413 42.4798 183.413 52.6059V89.4053ZM292.961 89.4053V50.7535C292.961 33.3417 283.576 23.2157 264.312 23.2157C253.692 23.2157 246.653 25.4385 239.491 28.6492L243.566 40.6275C249.493 38.1578 254.927 36.5524 262.212 36.5524C272.585 36.5524 278.266 41.4919 278.266 50.5065V51.7414C273.203 50.1361 268.14 49.0247 260.237 49.0247C245.048 49.0247 233.81 55.94 233.81 70.3881V70.6351C233.81 83.7248 244.677 90.7636 257.026 90.7636C266.905 90.7636 273.697 86.6885 278.142 81.3785V89.4053H292.961ZM278.513 65.8191C278.513 73.9693 271.104 79.5262 261.225 79.5262C254.186 79.5262 248.629 76.0686 248.629 69.8942V69.6472C248.629 63.3493 254.186 59.5212 263.571 59.5212C269.375 59.5212 274.685 60.6326 278.513 62.1144V65.8191ZM309.636 104.651H354.483C356.451 103.521 358.213 102.187 359.757 100.643C365.191 95.2092 368.031 87.059 368.031 76.0686V24.2036H353.089V33.9592C348.026 27.9083 341.234 22.8453 330.244 22.8453C315.055 22.8453 300.607 34.2062 300.607 53.4703V53.7172C300.607 72.8579 314.931 84.2188 330.244 84.2188C340.987 84.2188 347.779 79.2792 353.212 72.2404V77.3034C353.212 90.3932 345.927 97.3085 332.59 97.3085C323.699 97.3085 316.29 94.7152 309.374 90.3932L303.817 101.631C305.681 102.754 307.623 103.762 309.636 104.651ZM315.672 53.5938C315.672 64.3372 323.946 71.623 334.195 71.623C344.568 71.623 353.336 64.2137 353.336 53.7172V53.4703C353.336 42.7268 344.568 35.441 334.195 35.441C323.822 35.441 315.672 42.6033 315.672 53.3468V53.5938ZM409.76 90.8871C421.739 90.8871 430.259 86.0711 436.434 78.6618L427.666 70.8821C422.48 75.9451 417.293 78.6618 410.007 78.6618C400.375 78.6618 392.842 72.7344 391.237 62.1144H439.15L439.179 61.7726C439.292 60.4224 439.397 59.1691 439.397 57.9158C439.397 39.1457 428.901 22.8453 408.155 22.8453C389.508 22.8453 376.295 38.1578 376.295 56.8044V57.0514C376.295 77.18 390.867 90.8871 409.76 90.8871ZM391.114 52.2354C392.472 42.1094 398.893 35.0706 408.031 35.0706C417.91 35.0706 423.591 42.6033 424.579 52.2354H391.114ZM464.529 89.4053H449.34V2.96371H464.529V46.4315L505.651 2.96371H524.297L488.362 40.1336L525.903 89.4053H507.503L477.989 50.5065L464.529 64.3372V89.4053ZM594.16 87.1825C590.455 89.2818 586.256 90.5166 580.699 90.5166C569.709 90.5166 561.929 85.7006 561.929 71.376V37.0464H553.656V24.2036H561.929V6.29788H576.871V24.2036H594.407V37.0464H576.871V69.0297C576.871 74.8337 579.835 77.18 584.898 77.18C588.232 77.18 591.196 76.439 594.16 74.9572V87.1825Z" fill="white"/>
<path d="M0.607422 111.866C0.607422 109.565 2.47264 107.7 4.77351 107.7H121.424V120.198H4.77351C2.47265 120.198 0.607422 118.333 0.607422 116.032V111.866Z" fill="#496BAE"/>
<path d="M120.329 107.7H239.063V120.198H120.329V107.7Z" fill="#625A9E"/>
<path d="M237.968 107.7H360.867V120.198H237.968V107.7Z" fill="#5BAF91"/>
<path d="M359.773 107.7H478.506V120.198H359.773V107.7Z" fill="#DD7438"/>
<path d="M477.411 107.7H594.062C596.363 107.7 598.228 109.565 598.228 111.866V116.032C598.228 118.333 596.363 120.198 594.062 120.198H477.411V107.7Z" fill="#F0BF43"/>
</svg>
