<svg width="598" height="121" viewBox="0 0 598 121" fill="none" xmlns="http://www.w3.org/2000/svg">
<path fill-rule="evenodd" clip-rule="evenodd" d="M529.939 14.2011H545.993V0H529.939V14.2011ZM530.557 89.4053H545.499V24.2036H530.557V89.4053ZM3.49118 89.4053H18.4332V27.6613L45.4771 68.1653H45.971L73.2619 27.4143V89.4053H88.4509V2.96371H72.2739L45.971 43.8382L19.6681 2.96371H3.49118V89.4053ZM156.883 89.4053V50.7535C156.883 33.3417 147.498 23.2157 128.234 23.2157C117.614 23.2157 110.575 25.4385 103.413 28.6492L107.488 40.6275C113.416 38.1578 118.849 36.5524 126.135 36.5524C136.508 36.5524 142.188 41.4919 142.188 50.5065V51.7414C137.125 50.1361 132.062 49.0247 124.159 49.0247C108.97 49.0247 97.7327 55.94 97.7327 70.3881V70.6351C97.7327 83.7248 108.6 90.7636 120.948 90.7636C130.827 90.7636 137.619 86.6885 142.065 81.3785V89.4053H156.883ZM142.435 65.8191C142.435 73.9693 135.026 79.5262 125.147 79.5262C118.108 79.5262 112.551 76.0686 112.551 69.8942V69.6472C112.551 63.3493 118.108 59.5212 127.493 59.5212C133.297 59.5212 138.607 60.6326 142.435 62.1144V65.8191ZM182.805 89.4053H167.863V24.2036H182.805V34.3296C187.004 28.1552 193.055 22.8453 203.181 22.8453C217.876 22.8453 226.397 32.7243 226.397 47.9133V89.4053H211.454V52.3589C211.454 42.2329 206.391 36.4289 197.5 36.4289C188.856 36.4289 182.805 42.4798 182.805 52.6059V89.4053ZM292.354 89.4053V50.7535C292.354 33.3417 282.968 23.2157 263.704 23.2157C253.084 23.2157 246.046 25.4385 238.883 28.6492L242.958 40.6275C248.886 38.1578 254.319 36.5524 261.605 36.5524C271.978 36.5524 277.658 41.4919 277.658 50.5065V51.7414C272.595 50.1361 267.532 49.0247 259.629 49.0247C244.44 49.0247 233.203 55.94 233.203 70.3881V70.6351C233.203 83.7248 244.07 90.7636 256.419 90.7636C266.298 90.7636 273.089 86.6885 277.535 81.3785V89.4053H292.354ZM277.905 65.8191C277.905 73.9693 270.496 79.5262 260.617 79.5262C253.578 79.5262 248.021 76.0686 248.021 69.8942V69.6472C248.021 63.3493 253.578 59.5212 262.963 59.5212C268.767 59.5212 274.077 60.6326 277.905 62.1144V65.8191ZM309.028 104.651H353.875C355.844 103.521 357.606 102.187 359.15 100.643C364.583 95.2092 367.424 87.059 367.424 76.0686V24.2036H352.482V33.9592C347.419 27.9083 340.627 22.8453 329.636 22.8453C314.447 22.8453 299.999 34.2062 299.999 53.4703V53.7172C299.999 72.8579 314.324 84.2188 329.636 84.2188C340.38 84.2188 347.172 79.2792 352.605 72.2404V77.3034C352.605 90.3932 345.319 97.3085 331.983 97.3085C323.091 97.3085 315.682 94.7152 308.767 90.3932L303.21 101.631C305.073 102.754 307.016 103.762 309.028 104.651ZM315.065 53.5938C315.065 64.3372 323.338 71.623 333.588 71.623C343.961 71.623 352.729 64.2137 352.729 53.7172V53.4703C352.729 42.7268 343.961 35.441 333.588 35.441C323.215 35.441 315.065 42.6033 315.065 53.3468V53.5938ZM409.153 90.8871C421.131 90.8871 429.652 86.0711 435.826 78.6618L427.059 70.8821C421.872 75.9451 416.686 78.6618 409.4 78.6618C399.768 78.6618 392.235 72.7344 390.63 62.1144H438.543L438.572 61.7726C438.685 60.4224 438.79 59.1691 438.79 57.9158C438.79 39.1457 428.293 22.8453 407.547 22.8453C388.901 22.8453 375.688 38.1578 375.688 56.8044V57.0514C375.688 77.18 390.259 90.8871 409.153 90.8871ZM390.506 52.2354C391.865 42.1094 398.286 35.0706 407.424 35.0706C417.303 35.0706 422.983 42.6033 423.971 52.2354H390.506ZM463.922 89.4053H448.733V2.96371H463.922V46.4315L505.043 2.96371H523.69L487.755 40.1336L525.295 89.4053H506.895L477.382 50.5065L463.922 64.3372V89.4053ZM593.552 87.1825C589.847 89.2818 585.649 90.5166 580.092 90.5166C569.102 90.5166 561.322 85.7006 561.322 71.376V37.0464H553.048V24.2036H561.322V6.29788H576.264V24.2036H593.799V37.0464H576.264V69.0297C576.264 74.8337 579.228 77.18 584.291 77.18C587.625 77.18 590.588 76.439 593.552 74.9572V87.1825Z" fill="#051924"/>
<path d="M0 111.866C0 109.565 1.86522 107.7 4.16609 107.7H120.817V120.198H4.16609C1.86522 120.198 0 118.333 0 116.032V111.866Z" fill="#496BAE"/>
<path d="M119.722 107.7H238.455V120.198H119.722V107.7Z" fill="#625A9E"/>
<path d="M237.36 107.7H360.26V120.198H237.36V107.7Z" fill="#5BAF91"/>
<path d="M359.165 107.7H477.899V120.198H359.165V107.7Z" fill="#DD7438"/>
<path d="M476.804 107.7H593.454C595.755 107.7 597.621 109.565 597.621 111.866V116.032C597.621 118.333 595.755 120.198 593.454 120.198H476.804V107.7Z" fill="#F0BF43"/>
</svg>
